<svg xmlns="http://www.w3.org/2000/svg" xml:space="preserve" width="1500" height="1500" data-id="lg_u30UszVpCAGK2Xs63G" data-version="1" viewBox="0 0 1500 1500"><path fill="#fff" stroke="transparent" d="M0 0h1500v1500H0z"/><g data-padding="20"><g transform="translate(-159.321 -161.31)scale(2.39542)"><filter id="a" width="140%" height="140%" x="-20%" y="-20%"><feGaussianBlur in="SourceAlpha"/><feOffset result="oBlur"/><feFlood flood-color="#000" flood-opacity="1"/><feComposite in2="oBlur" operator="in"/><feMerge><feMergeNode/><feMergeNode in="SourceGraphic"/></feMerge></filter><g filter="url(#a)"><path fill="#6ea0f5" d="M185.283 578.379v-385.03q146.35-10.85 191.07-10.85 44.73 0 70.65 8.32 25.91 8.31 46.41 23.02 39.78 28.21 60.15 74.98 20.37 46.78 20.37 94.76 0 47.97-15.55 83.78-15.55 35.8-43.03 60.39-56.18 50.87-145.38 50.63Zm149.97-262.79v146.82q12.78-10.84 27.72-21.45 57.39-41.23 57.39-86.32 0-21.94-13.02-40.62-13.02-18.69-33.88-18.69-20.85 0-38.21 20.26"/></g></g><path fill="transparent" stroke="transparent" stroke-width="2.525" d="M258.838 250h982.324v1000H258.838z"/></g></svg>